<svg width="201" height="201" viewBox="0 0 201 201" fill="none" xmlns="http://www.w3.org/2000/svg">
<path d="M180.901 100.5C180.901 144.904 144.904 180.901 100.5 180.901C56.0962 180.901 20.0996 144.904 20.0996 100.5C20.0996 56.096 56.0962 20.0994 100.5 20.0994C144.904 20.0994 180.901 56.096 180.901 100.5Z" fill="#FCD97B"/>
<path d="M164.151 100.5C164.151 135.653 135.653 164.151 100.5 164.151C65.3475 164.151 36.8496 135.653 36.8496 100.5C36.8496 65.3473 65.3475 36.8494 100.5 36.8494C135.653 36.8494 164.151 65.3473 164.151 100.5Z" fill="#50423A"/>
<path d="M100.5 36.8494L117.063 75.4897L160.8 80.4006L127.3 108.613L140.7 147.401L100.5 137.349L60.2996 147.401L73.7002 108.613L40.2002 80.4006L83.9366 75.4897L100.5 36.8494Z" fill="#FAE67E"/>
<path d="M110.55 97.1506C112.4 97.1491 113.899 95.6494 113.901 93.7997V87.0994C113.901 85.6585 112.977 84.3779 111.61 83.9221L103.85 81.3357V77.0497C103.85 75.2001 102.35 73.7003 100.5 73.7003C98.6505 73.7003 97.1508 75.2001 97.1508 77.0497V79.1023L91.5106 77.2218C89.7536 76.6366 87.8554 77.5879 87.2716 79.3434C87.1584 79.6846 87.0996 80.0404 87.0996 80.3991V100.5C87.0996 101.942 88.023 103.222 89.3904 103.677L107.2 109.615V119.303L93.7999 114.836V113.901C93.7999 112.049 92.3002 110.55 90.4505 110.55C88.6008 110.55 87.0996 112.049 87.0996 113.901V117.25C87.0996 118.692 88.023 119.972 89.3904 120.427L97.3272 123.074C97.2287 123.356 97.1684 123.652 97.1508 123.95V127.3C97.1508 129.149 98.6505 130.649 100.5 130.649C102.35 130.649 103.85 129.149 103.85 127.3V125.247L109.49 127.128C111.247 127.713 113.145 126.762 113.729 125.006C113.842 124.665 113.901 124.309 113.901 123.95V107.2C113.901 105.758 112.977 104.477 111.61 104.021L93.7999 98.0857V85.0469L107.2 89.5137V93.7997C107.2 95.6494 108.7 97.1491 110.55 97.1506Z" fill="#4E4E4E"/>
<path d="M23.4503 46.9006C21.6006 46.8991 20.1009 45.3994 20.0994 43.5497C20.0891 34.3043 12.5963 26.8115 3.34941 26.7997C1.49974 26.7997 0 25.3 0 23.4503C0 21.6006 1.49974 20.0994 3.34941 20.0994C12.5963 20.0891 20.0891 12.5963 20.0994 3.34941C20.0994 1.49974 21.6006 0 23.4503 0C25.3 0 26.7997 1.49974 26.7997 3.34941C26.8115 12.5963 34.3043 20.0891 43.5497 20.0994C45.3994 20.0994 46.9006 21.6006 46.9006 23.4503C46.9006 25.3 45.3994 26.7997 43.5497 26.7997C34.3043 26.8115 26.8115 34.3043 26.7997 43.5497C26.7997 45.3994 25.3 46.8991 23.4503 46.9006ZM15.4179 23.4503C18.7085 25.4352 21.4653 28.1921 23.4503 31.4812C25.4352 28.1921 28.1921 25.4352 31.4812 23.4503C28.1921 21.4653 25.4352 18.7085 23.4503 15.4193C21.4653 18.7085 18.7085 21.4653 15.4179 23.4503Z" fill="#FFE68E"/>
<path d="M177.55 201C175.7 201 174.2 199.5 174.2 197.651C174.189 188.404 166.696 180.911 157.45 180.901C155.601 180.901 154.1 179.399 154.1 177.55C154.1 175.7 155.601 174.2 157.45 174.2C166.696 174.189 174.189 166.696 174.2 157.45C174.2 155.601 175.7 154.099 177.55 154.099C179.4 154.099 180.901 155.601 180.901 157.45C180.911 166.696 188.404 174.189 197.651 174.2C199.5 174.2 201 175.7 201 177.55C201 179.399 199.5 180.901 197.651 180.901C188.404 180.911 180.911 188.404 180.901 197.651C180.899 199.5 179.4 201 177.55 201ZM169.519 177.55C172.808 179.535 175.565 182.292 177.55 185.582C179.535 182.292 182.292 179.535 185.582 177.55C182.292 175.565 179.535 172.808 177.55 169.519C175.565 172.808 172.808 175.565 169.519 177.55Z" fill="#FFE68E"/>
</svg>
