<svg width="36" height="19" viewBox="0 0 36 19" fill="none" xmlns="http://www.w3.org/2000/svg">
<path d="M12.2999 7.36908H8.0249V3.00755H5.1749V7.36908H0.899902V10.2768H5.1749V14.6383H8.0249V10.2768H12.2999V7.36908ZM26.5499 8.82293C28.9724 8.82293 30.8249 6.93293 30.8249 4.46139C30.8249 1.98985 28.9724 0.0998535 26.5499 0.0998535C26.1224 0.0998535 25.6949 0.245238 25.2674 0.245238C26.1224 1.5537 26.5499 2.86216 26.5499 4.46139C26.5499 6.06062 26.1224 7.36909 25.2674 8.67755C25.6949 8.67755 26.1224 8.82293 26.5499 8.82293ZM19.4249 8.82293C21.8474 8.82293 23.6999 6.93293 23.6999 4.46139C23.6999 1.98985 21.8474 0.0998535 19.4249 0.0998535C17.0024 0.0998535 15.1499 1.98985 15.1499 4.46139C15.1499 6.93293 17.0024 8.82293 19.4249 8.82293ZM28.8299 12.0214C29.9699 13.0391 30.8249 14.493 30.8249 16.0922V18.9999H35.0999V16.0922C35.0999 13.9114 31.6799 12.4575 28.8299 12.0214ZM19.4249 11.7306C16.5749 11.7306 10.8749 13.1845 10.8749 16.0922V18.9999H27.9749V16.0922C27.9749 13.1845 22.2749 11.7306 19.4249 11.7306Z" fill="#343533"/>
</svg>
