<svg width="20" height="20" viewBox="0 0 20 20" fill="none" xmlns="http://www.w3.org/2000/svg">
<g clip-path="url(#clip0)">
<path d="M19.24 20.3437C19.8495 20.3437 20.3438 19.8495 20.3438 19.2398V1.44759C20.3438 0.837854 19.8496 0.34375 19.24 0.34375H1.4476C0.837858 0.34375 0.34375 0.837854 0.34375 1.44759V19.2398C0.34375 19.8494 0.83778 20.3437 1.4476 20.3437H19.24Z" fill="#3C5A99"/>
<path d="M13.304 20.84V13.3612H15.8143L16.1902 10.4466H13.304V8.58579C13.304 7.74193 13.5383 7.16688 14.7484 7.16688L16.2918 7.1662V4.55933C16.0248 4.52381 15.1087 4.44446 14.0428 4.44446C11.8175 4.44446 10.2941 5.80275 10.2941 8.29713V10.4466H7.77734V13.3612H10.2941V20.84H13.304Z" fill="white"/>
</g>
<defs>
<clipPath id="clip0">
<rect width="20" height="20" fill="white"/>
</clipPath>
</defs>
</svg>
