<svg width="151" height="114" viewBox="0 0 151 114" fill="none" xmlns="http://www.w3.org/2000/svg">
<mask maskUnits="userSpaceOnUse" x="0" y="0" width="0" height="0" fill="black">
<rect fill="white" width="0" height="0"/>
</mask>
<path d="M75.5698 54.0026L69.7702 63.9875L81.3172 64.0177L75.5698 54.0026ZM75.4145 113.403L81.2142 103.418L69.6672 103.388L75.4145 113.403ZM74.5144 75.2144L74.47 92.1859L76.47 92.1911L76.5144 75.2196L74.5144 75.2144Z" fill="#FCD97B" mask="url(#)"/>
<path d="M76.5698 53L90.1132 49.4302L79.4095 45.0983L76.5698 53ZM150.294 1.37818L136.75 4.94798L147.454 9.2799L150.294 1.37818ZM95.0501 41.0843L109.093 31.2515L107.239 30.5012L93.1961 40.334L95.0501 41.0843ZM119.625 23.877L133.667 14.0443L131.813 13.2939L117.771 23.1267L119.625 23.877Z" fill="#FCD97B"/>
<mask maskUnits="userSpaceOnUse" x="0" y="0" width="0" height="0" fill="black">
<rect fill="white" width="0" height="0"/>
</mask>
<path d="M74.6429 52.9971L71.8032 45.0954L61.0995 49.4273L74.6429 52.9971ZM0.919214 1.37522L3.75891 9.27694L14.4625 4.94502L0.919214 1.37522ZM58.0166 40.331L43.974 30.4983L42.12 31.2486L56.1627 41.0813L58.0166 40.331ZM33.442 23.1237L19.3994 13.291L17.5455 14.0413L31.5881 23.874L33.442 23.1237Z" fill="#FCD97B" mask="url(#)"/>
<circle cx="75.5" cy="53.5001" r="15.5" fill="#FCD97B"/>
<path d="M74.7929 60.7071C75.1834 61.0977 75.8166 61.0977 76.2071 60.7071L82.5711 54.3432C82.9616 53.9527 82.9616 53.3195 82.5711 52.929C82.1805 52.5384 81.5474 52.5384 81.1569 52.929L75.5 58.5858L69.8431 52.929C69.4526 52.5384 68.8195 52.5384 68.4289 52.929C68.0384 53.3195 68.0384 53.9527 68.4289 54.3432L74.7929 60.7071ZM74.5 47L74.5 60L76.5 60L76.5 47L74.5 47Z" fill="black"/>
</svg>
