<svg width="28" height="36" viewBox="0 0 28 36" fill="none" xmlns="http://www.w3.org/2000/svg">
<path d="M26.2662 22.9219L25.3413 22.3856C25.387 21.9748 25.4093 21.5745 25.4093 21.1764C25.4093 20.7801 25.3871 20.3798 25.3413 19.969L26.2649 19.4349C26.8917 19.0722 27.3414 18.4876 27.5279 17.7882C27.7145 17.0898 27.6181 16.3588 27.2567 15.732L25.3459 12.4199C24.6254 11.1723 22.8943 10.7075 21.642 11.4268L20.7158 11.9609C20.3612 11.7027 19.9907 11.4703 19.609 11.2556V14.1664C19.6806 14.2239 19.7639 14.2647 19.8345 14.3246C20.223 14.6524 20.7734 14.704 21.2136 14.4491L22.8436 13.5089C22.8907 13.4808 22.9423 13.4681 22.9963 13.4681C23.0374 13.4681 23.1819 13.4785 23.264 13.6216L25.1747 16.9337C25.2276 17.0253 25.2205 17.1111 25.2064 17.1674C25.191 17.2226 25.1535 17.301 25.0633 17.3527L23.4319 18.2952C22.994 18.5501 22.7617 19.051 22.8509 19.5501C22.9554 20.1253 23.0058 20.658 23.0058 21.1765C23.0058 21.6965 22.9554 22.2295 22.8509 22.8047C22.7616 23.3033 22.9927 23.8047 23.4319 24.0582L25.0633 25.0031C25.21 25.0874 25.2594 25.2752 25.1747 25.422L23.264 28.7328C23.1819 28.8759 23.0374 28.8867 22.9963 28.8867C22.9423 28.8867 22.8907 28.8736 22.8436 28.8455L21.2123 27.9042C20.7712 27.6507 20.2195 27.7009 19.8332 28.0297C19.0022 28.735 18.0551 29.2811 17.0175 29.6506C16.5387 29.8219 16.2195 30.2749 16.2195 30.7833V32.6692C16.2195 32.8382 16.0809 32.9768 15.9119 32.9768H12.0881C11.9192 32.9768 11.7806 32.8382 11.7806 32.6692V30.7833C11.7806 30.2749 11.4613 29.8219 10.9825 29.6506C9.94494 29.2811 8.99783 28.735 8.16681 28.0297C7.78086 27.7009 7.22926 27.6507 6.78777 27.9042L5.15638 28.8455C5.10934 28.8736 5.05773 28.8867 5.00373 28.8867C4.9626 28.8867 4.81846 28.8759 4.73612 28.7328L2.82531 25.422C2.741 25.2752 2.79036 25.0874 2.93704 25.0031L4.56843 24.0582C5.00732 23.8047 5.23836 23.3033 5.14914 22.8047C5.04493 22.2294 4.99424 21.6964 4.99424 21.1765C4.99424 20.658 5.04493 20.1253 5.14914 19.5501C5.23843 19.051 5.00605 18.5501 4.56843 18.2952L2.93704 17.3526C2.84654 17.301 2.809 17.2226 2.7936 17.1673C2.77954 17.111 2.77272 17.0252 2.82531 16.9336L4.73612 13.6216C4.81846 13.4785 4.9626 13.468 5.00373 13.468C5.05773 13.468 5.10934 13.4807 5.15638 13.5088L6.78679 14.449C7.22666 14.704 7.77728 14.6524 8.16582 14.3245C8.23607 14.2647 8.31946 14.2238 8.39097 14.1663V11.2556C8.00959 11.4703 7.63869 11.7026 7.28411 11.9608L6.3583 11.4268C5.10597 10.7075 3.37459 11.1722 2.65403 12.4199L0.743286 15.732C0.38188 16.3588 0.285481 17.0899 0.472091 17.7882C0.658981 18.4876 1.10842 19.0722 1.73518 19.4349L2.65874 19.969C2.61297 20.3798 2.59075 20.7801 2.59075 21.1764C2.59075 21.5745 2.6129 21.9748 2.65874 22.3856L1.73385 22.9219C0.440379 23.6682 -0.00441742 25.3291 0.743286 26.6236L2.6541 29.9346C3.13778 30.7716 4.03778 31.2902 5.00373 31.2902C5.47792 31.2902 5.9462 31.1647 6.35837 30.9275L7.28551 30.3925C7.93689 30.8667 8.6365 31.269 9.37703 31.5965V32.6693C9.37703 34.1648 10.593 35.3805 12.0881 35.3805H15.912C17.4075 35.3805 18.6232 34.1648 18.6232 32.6693V31.5965C19.364 31.269 20.0633 30.8667 20.7146 30.3925L21.6421 30.9275C22.0538 31.1647 22.5222 31.2902 22.9964 31.2902C23.9623 31.2902 24.8627 30.7716 25.346 29.9346L27.2568 26.6236C28.0044 25.3291 27.5596 23.6682 26.2662 22.9219Z" fill="#B1F879"/>
<path d="M8.03183 7.73797H10.7972V18.5968C10.7972 19.321 11.3838 19.9079 12.1081 19.9079H15.8943C16.6185 19.9079 17.2054 19.3209 17.2054 18.5968V7.73797H19.9681C20.2113 7.73797 20.4296 7.59257 20.5221 7.36827C20.6149 7.14411 20.5645 6.88599 20.393 6.71443L14.507 0.829768C14.3661 0.688932 14.1832 0.619675 14.0002 0.619675C13.8169 0.619675 13.6338 0.688932 13.493 0.829768L7.607 6.71443C7.43579 6.88592 7.38516 7.14411 7.47798 7.36827C7.57079 7.59249 7.78904 7.73797 8.03183 7.73797Z" fill="#B1F879"/>
</svg>
