<svg width="27" height="32" viewBox="0 0 27 32" fill="none" xmlns="http://www.w3.org/2000/svg">
<path d="M21.3586 7.86296C21.3586 3.52068 17.8416 0 13.4955 0C9.15325 0 5.63257 3.52068 5.63257 7.86296C5.63257 12.2053 9.15325 15.7259 13.4955 15.7259C17.8418 15.7259 21.3586 12.2053 21.3586 7.86296ZM7.59821 8.03308C7.59821 8.03308 7.37145 5.8027 8.97802 4.10157C10.1088 5.23504 13.4955 8.03308 19.3929 8.03308C19.3929 11.2851 16.7474 13.9304 13.4955 13.9304C10.2436 13.9304 7.59821 11.285 7.59821 8.03308Z" fill="#B1F879"/>
<path d="M0 21.7745V25.2523V29.7508C0 30.9942 1.00823 32 2.24922 32H24.742C25.9853 32 26.9912 30.994 26.9912 29.7508V25.2523V21.7745C26.9912 19.2902 24.9792 17.276 22.4927 17.276H18.5046C18.2228 17.276 17.8675 17.4663 17.7113 17.7007L13.7789 23.2589C13.6226 23.4935 13.3691 23.4935 13.2128 23.2589L9.28024 17.7005C9.12392 17.4659 8.76868 17.2758 8.48683 17.2758H4.4985C2.01634 17.2758 0 19.2901 0 21.7745Z" fill="#B1F879"/>
</svg>
