<svg width="31" height="31" viewBox="0 0 31 31" fill="none" xmlns="http://www.w3.org/2000/svg">
<path d="M25.1292 19.2571C23.8817 19.2571 22.6982 19.652 21.6824 20.4032L11.8734 15.4985L21.6824 10.5923C22.6982 11.3445 23.8816 11.7397 25.1293 11.7397C28.3664 11.7397 31 9.1054 31 5.86742C31 2.63209 28.3664 0 25.1293 0C21.9148 0 19.2957 2.5968 19.2606 5.80215L9.31617 10.7726C8.29698 10.0222 7.11396 9.6278 5.8705 9.6278C2.63355 9.6278 0 12.262 0 15.5C0 18.7353 2.63355 21.3674 5.87069 21.3674C7.11396 21.3674 8.29704 20.9735 9.31604 20.224L19.2607 25.1943C19.2964 28.4019 21.9152 31 25.1293 31C26.6976 31 28.172 30.3893 29.2806 29.2805C30.3894 28.1716 31 26.6968 30.9999 25.1277C30.9999 21.8907 28.3663 19.2571 25.1292 19.2571ZM28.4072 28.4073C27.5319 29.2828 26.3677 29.765 25.1293 29.765C22.5742 29.765 20.4954 27.6848 20.4954 25.1278C20.4954 25.1078 20.5001 25.0719 20.5052 25.0339C20.5115 24.9877 20.5192 24.9301 20.5232 24.8659C20.5388 24.6183 20.4049 24.3855 20.183 24.2746L9.51833 18.9445C9.43084 18.9007 9.33627 18.8793 9.24236 18.8793C9.09983 18.8793 8.95858 18.9286 8.84499 19.0241C7.98202 19.7492 6.95351 20.1324 5.87069 20.1324C3.31464 20.1324 1.23516 18.0543 1.23516 15.5001C1.23516 12.9432 3.31464 10.8629 5.87069 10.8629C6.95338 10.8629 7.98177 11.2466 8.84469 11.9726C9.03323 12.1312 9.29794 12.1625 9.51827 12.0525L20.1829 6.72197C20.4048 6.61099 20.5388 6.37807 20.5232 6.13049C20.5192 6.06704 20.5118 6.012 20.5054 5.9635C20.5001 5.92457 20.4953 5.88788 20.4953 5.86729C20.4954 3.31306 22.5742 1.2351 25.1293 1.2351C27.6855 1.2351 29.765 3.31312 29.7649 5.86736C29.7649 8.42437 27.6854 10.5046 25.1293 10.5046C24.0428 10.5046 23.0149 10.1202 22.1567 9.393C21.9682 9.23328 21.7024 9.20131 21.4812 9.31187L10.8169 14.646C10.5958 14.7566 10.462 14.9883 10.4767 15.235L10.4766 15.7616C10.4617 16.0086 10.5956 16.2406 10.8169 16.3512L21.4812 21.6835C21.7022 21.7941 21.9677 21.7621 22.1563 21.6025C23.0146 20.8762 24.0426 20.4923 25.1292 20.4923C27.6854 20.4923 29.7648 22.5718 29.7648 25.1279C29.7648 26.367 29.2827 27.5316 28.4072 28.4073Z" fill="#B1F879"/>
</svg>
