<svg width="30" height="30" viewBox="0 0 30 30" fill="none" xmlns="http://www.w3.org/2000/svg">
<path d="M27.6545 0.0112544C27.6498 0.0159725 27.5256 0.0372066 27.3826 0.0584407C26.5225 0.178768 25.435 0.542111 24.317 1.08477C23.7123 1.37969 23.1146 1.73831 22.8826 1.94593L22.7701 2.04739L21.4037 2.06154L20.0396 2.07806L20.0162 2.02379C20.0045 1.99548 19.9834 1.81381 19.9693 1.61798C19.9553 1.42451 19.9389 1.25936 19.9342 1.24992C19.9271 1.24284 19.8428 1.22161 19.7443 1.20509C19.5967 1.1815 19.5615 1.1815 19.5451 1.20981C19.5334 1.22633 19.456 1.41508 19.3693 1.62978C19.2849 1.84448 19.2029 2.03087 19.1889 2.04739C19.1607 2.0757 17.0959 2.09929 10.8756 2.1394L8.52009 2.15592L8.35369 1.99076C7.56619 1.20745 5.26931 0.405267 3.33103 0.235394C2.88337 0.197644 2.09118 0.218878 1.81696 0.280221C1.13962 0.428863 0.919305 0.645922 0.649774 1.43395C0.373211 2.23142 0.176336 3.36863 0.0849294 4.68516C-0.00882065 6.00405 -0.0181957 6.35559 0.0239919 6.936C0.0357106 7.11295 0.0568044 7.43618 0.0708669 7.65796C0.227898 10.0787 0.81618 12.0346 1.71384 13.1317C1.90837 13.37 2.15446 13.6036 2.67243 14.0424C4.75837 15.8096 7.39744 18.261 8.97713 19.8984C10.3178 21.2904 11.1545 22.2766 11.6537 23.0528C12.0404 23.6498 12.3428 24.4189 12.481 25.1432C12.5279 25.3863 12.5279 25.8558 12.481 26.0374C12.3873 26.4031 12.1318 26.7287 11.799 26.9033C11.4287 27.0992 11.0701 27.1841 10.1045 27.3115C9.03103 27.4507 8.77322 27.5262 8.52947 27.7716C8.40759 27.8943 8.35134 28.0335 8.32791 28.2694C8.24588 29.1141 9.86072 29.6968 12.8678 29.9044C14.6842 30.0319 16.0717 30.0319 17.7428 29.9044C20.3818 29.7063 22.0623 29.199 22.3646 28.5101C22.4279 28.3685 22.4139 28.1373 22.3365 27.9745C22.2545 27.8022 22.0576 27.6017 21.8748 27.505C21.5795 27.3516 21.3146 27.2973 20.5435 27.2407C19.7959 27.1865 19.6248 27.1605 19.3506 27.0638C19.0646 26.9647 18.8889 26.809 18.7646 26.5447C18.692 26.3937 18.692 26.3866 18.692 26.0256C18.692 25.6883 18.699 25.6363 18.7717 25.3532C18.8959 24.8601 19.1115 24.2821 19.3435 23.8196C19.8451 22.8098 21.2115 21.0781 23.3889 18.688C24.4693 17.5036 26.281 15.6114 27.3779 14.5261C27.7834 14.125 28.1795 13.7215 28.2615 13.6295C29.1803 12.5796 29.7732 10.6308 29.9303 8.12984C29.9443 7.90806 29.9654 7.57775 29.9771 7.39608C30.0076 6.96903 30.0076 6.44525 29.9771 6.00169C29.9654 5.80822 29.9443 5.46139 29.9303 5.22782C29.8553 3.97263 29.6865 2.78587 29.4404 1.80909C29.3115 1.29947 29.2014 0.983313 29.0443 0.674237C28.8475 0.287301 28.6576 0.145736 28.2076 0.0513637C28.0037 0.00653642 27.6826 -0.0147008 27.6545 0.0112544ZM26.8529 4.62854C27.1107 4.75358 27.2232 5.24433 27.167 6.00641C27.1342 6.44997 27.0803 6.83219 26.9771 7.31586C26.8623 7.86559 26.8553 7.8939 26.7873 7.90098C26.6936 7.91042 23.3607 7.53056 23.3373 7.50697C23.3232 7.49281 23.3185 7.26395 23.3256 6.94072C23.335 6.50659 23.3443 6.38863 23.3725 6.3438C23.4381 6.24706 23.881 5.81294 24.1014 5.63127C24.7154 5.13108 25.4771 4.73707 26.0396 4.62854C26.11 4.61438 26.1896 4.59786 26.2154 4.59315C26.2412 4.58843 26.3725 4.58371 26.506 4.58135C26.71 4.57899 26.7686 4.58607 26.8529 4.62854ZM5.61384 4.9093C6.05447 4.95177 6.41072 5.05794 6.71072 5.23253C6.88181 5.33399 7.14666 5.58408 7.24041 5.73272L7.31306 5.84597V6.29189C7.31541 7.7547 7.42556 9.46524 7.59666 10.6544C7.85447 12.4451 8.25056 13.823 8.86228 15.0735C8.99119 15.3353 9.09431 15.5642 9.08963 15.5784C9.07791 15.609 8.63259 15.2504 8.18025 14.8517C6.94509 13.7569 5.01853 11.6948 4.51228 10.9257C3.98493 10.1259 3.57243 8.88484 3.37321 7.50461C3.32868 7.20025 3.31931 7.03273 3.31931 6.51367C3.31696 6.07955 3.32634 5.84597 3.34743 5.74688C3.43181 5.35994 3.55134 5.12872 3.70603 5.05086C3.77165 5.01547 3.91462 4.99188 4.25915 4.95649C4.99743 4.88335 5.23415 4.87391 5.61384 4.9093ZM26.6092 8.63946C26.6045 8.7126 26.4146 9.24346 26.281 9.55726C26.1264 9.91588 25.9225 10.317 25.7748 10.5506C25.5451 10.9186 24.6521 12.0818 24.5982 12.0818C24.5748 12.0818 23.6303 11.1003 23.2271 10.6591L23.1264 10.5458L23.1662 10.0692C23.2178 9.44165 23.2178 9.44637 23.281 9.42513C23.4381 9.37323 26.5717 8.57104 26.5904 8.57576C26.6045 8.58048 26.6115 8.60879 26.6092 8.63946ZM23.3162 12.8863C23.5904 13.0184 23.7662 13.1175 23.7662 13.1388C23.7662 13.1577 23.5881 13.3959 23.3725 13.6696C23.0185 14.1179 21.8982 15.5524 21.8279 15.6444C21.8139 15.6633 21.7928 15.6727 21.7834 15.6633C21.774 15.6539 21.8209 15.5265 21.8889 15.3825C22.2264 14.6582 22.5029 13.8537 22.6881 13.0609C22.7678 12.7094 22.7959 12.6386 22.8357 12.6551C22.8498 12.6622 23.0678 12.766 23.3162 12.8863Z" fill="#B1F879"/>
</svg>
