<svg width="32" height="19" viewBox="0 0 32 19" fill="none" xmlns="http://www.w3.org/2000/svg">
<path d="M6.46599 0.0150037C6.17554 0.0475156 5.81732 0.105572 5.53414 0.168272C4.92903 0.302963 4.61196 0.451587 4.33603 0.730258C4.13514 0.934616 3.89068 1.52679 3.74303 2.1747C3.70189 2.35816 3.66558 2.51375 3.66074 2.51607C3.65832 2.51839 3.53004 2.60896 3.37513 2.71346C2.60302 3.24293 2.03422 3.74919 1.79218 4.12539C1.54046 4.52017 1.32262 5.04036 1.12899 5.71846C0.986187 6.22006 0.991028 6.18987 0.744146 8.80473C0.519048 11.1711 0.465799 12.1163 0.463379 13.7511C0.463379 15.0191 0.492424 15.7924 0.560195 16.3195C0.64491 16.9651 0.88453 17.4644 1.31536 17.8987C1.88174 18.4676 2.46748 18.7904 3.2178 18.946C3.56634 19.018 4.22227 19.018 4.4982 18.946C4.89273 18.8438 5.27999 18.6279 5.71083 18.2702C6.29898 17.7826 6.74918 17.137 7.439 15.7831C7.60359 15.458 7.79722 15.0818 7.86499 14.9471C7.9497 14.7822 8.03684 14.6545 8.13365 14.5523C8.21353 14.4687 8.33455 14.3247 8.40716 14.2342L8.53786 14.0646L8.78475 14.2574C9.34386 14.6916 9.61737 14.8194 10.2588 14.9494C10.5589 15.0098 11.1519 15.0214 11.4399 14.9726C12.1007 14.8612 12.6719 14.6545 13.1584 14.3479C13.5747 14.0832 13.8265 13.7767 14.1581 13.1311L14.3323 12.792H15.9419H17.5515L17.7257 13.1311C18.0573 13.7767 18.3091 14.0832 18.7254 14.3479C19.2046 14.6522 19.7831 14.8612 20.4439 14.9726C20.7319 15.0214 21.3249 15.0098 21.625 14.9494C22.2664 14.8194 22.5399 14.6916 23.099 14.2574L23.3459 14.0646L23.4766 14.2342C23.5468 14.3247 23.6654 14.4641 23.7405 14.5407C23.8929 14.7009 23.9341 14.7752 24.3746 15.6438C25.108 17.0975 25.5388 17.7338 26.1318 18.2377C26.5626 18.6046 26.9814 18.8415 27.3832 18.946C27.6615 19.018 28.315 19.018 28.666 18.946C29.4163 18.7904 30.0021 18.4676 30.5684 17.8987C30.9993 17.4644 31.2389 16.9651 31.3236 16.3195C31.3914 15.7924 31.4204 15.0191 31.4204 13.7511C31.418 12.1139 31.3647 11.1688 31.1396 8.80473C30.8976 6.234 30.8879 6.16433 30.7161 5.59305C30.5055 4.89406 30.2949 4.42264 30.019 4.02553C29.7915 3.69577 29.1888 3.17327 28.4869 2.69953L28.2158 2.51375L28.1892 2.38602C28.1746 2.31403 28.1238 2.112 28.0778 1.93551C27.8455 1.04144 27.5841 0.639689 27.0758 0.40282C26.7442 0.247229 26.2311 0.119505 25.5993 0.0359036C25.2605 -0.0105411 24.5489 -0.00357389 24.2826 0.0475156C24.0357 0.0939603 23.7308 0.196139 23.5759 0.282063C23.3411 0.414431 23.0603 0.707036 22.7699 1.12272C22.5883 1.38513 22.5278 1.51286 22.4431 1.81707C22.3753 2.06788 22.2592 2.69488 22.2592 2.81564V2.88763H15.9419H9.62463V2.81564C9.62463 2.5718 9.42615 1.69631 9.31966 1.46177C9.23978 1.28295 8.8985 0.811537 8.70971 0.616467C8.40716 0.302963 8.12881 0.156662 7.65199 0.0568036C7.39785 0.00571413 6.76854 -0.0175082 6.46599 0.0150037ZM26.156 3.23365C26.6353 3.36137 26.9572 3.77938 26.9596 4.27634C26.9596 4.51553 26.9088 4.68041 26.7684 4.88709C26.4562 5.34225 25.776 5.49552 25.2847 5.22149C24.7038 4.8987 24.5295 4.19506 24.8998 3.66326C25.0184 3.49142 25.1516 3.38459 25.3597 3.2917C25.6235 3.17327 25.8583 3.15701 26.156 3.23365ZM6.93797 4.44818V5.09609L6.80485 5.25633C6.58459 5.5141 6.23847 5.83921 6.12472 5.89263L6.01822 5.94139L5.91172 5.89263C5.78828 5.83457 5.51961 5.58841 5.27273 5.30742L5.09846 5.1077V4.45283V3.80028H6.01822H6.93797V4.44818ZM23.4766 5.56519C23.784 5.67666 24.0599 5.95533 24.1592 6.25025C24.2221 6.43371 24.2221 6.73793 24.1616 6.91209C24.0769 7.15129 23.9413 7.32778 23.7332 7.46943C23.525 7.60877 23.3556 7.65986 23.0942 7.6645C22.828 7.66683 22.6488 7.61574 22.4407 7.48105C21.8574 7.1002 21.7799 6.29437 22.2809 5.82064C22.4334 5.67666 22.598 5.58377 22.7941 5.53035C22.9756 5.48159 23.2927 5.49784 23.4766 5.56519ZM28.8233 5.52106C29.1525 5.58841 29.4575 5.81831 29.6099 6.11788C29.6947 6.27812 29.7019 6.31063 29.7092 6.53124C29.7237 6.87958 29.6487 7.08162 29.4091 7.32778C28.9758 7.77829 28.2497 7.78526 27.7874 7.34403C27.5623 7.12806 27.4655 6.89352 27.463 6.57072C27.4606 5.89727 28.1287 5.38173 28.8233 5.52106ZM4.83948 5.70452C5.23158 6.00642 5.53414 6.33618 5.53414 6.45926C5.53414 6.57305 5.25821 6.87262 4.85884 7.18844L4.67973 7.3301H3.99234H3.30736V6.4639C3.30736 5.98551 3.31462 5.58841 3.3243 5.58144C3.33156 5.57215 3.63654 5.56519 3.9996 5.56519H4.66037L4.83948 5.70452ZM8.71697 6.44764V7.31849L8.04168 7.32546L7.36639 7.3301L7.23326 7.23257C7.02027 7.07697 6.64752 6.72399 6.57007 6.61252C6.53376 6.55447 6.5023 6.48015 6.5023 6.44532C6.5023 6.31992 6.8339 5.97158 7.25021 5.66272L7.37849 5.56519L8.04894 5.56983L8.71697 5.5768V6.44764ZM18.9843 6.32224C19.4563 6.47087 19.8339 6.59859 19.8242 6.6102C19.8121 6.61949 19.7105 6.65432 19.5967 6.68916C19.483 6.72167 19.1005 6.84243 18.7447 6.95622L18.0961 7.1629V6.60788C18.0961 6.30366 18.1033 6.05286 18.1106 6.05286C18.1178 6.05286 18.5124 6.17362 18.9843 6.32224ZM13.6425 6.59859V7.1211H12.7591H11.8756V6.59859V6.07608H12.7591H13.6425V6.59859ZM6.15134 7.02588C6.28446 7.10484 6.46115 7.26972 6.70077 7.5391L6.93797 7.80616L6.93313 8.45639L6.92587 9.10662H6.01822H5.11056L5.1033 8.45407L5.09846 7.80152L5.25821 7.61806C5.49783 7.34403 5.65032 7.19773 5.81006 7.08394C5.96497 6.97015 6.04 6.95854 6.15134 7.02588ZM26.3037 7.91531C26.7321 8.1127 26.9596 8.45175 26.9596 8.89762C26.9596 9.21809 26.841 9.48747 26.6062 9.69415C26.3666 9.90548 26.1246 9.98676 25.7688 9.97282C25.5558 9.96586 25.517 9.95657 25.3476 9.87529C24.4206 9.43638 24.515 8.17308 25.4977 7.8619C25.6066 7.82706 25.6889 7.82009 25.8801 7.82474C26.1028 7.83171 26.1439 7.841 26.3037 7.91531ZM11.3141 9.75918C11.8466 9.86368 12.3524 10.1772 12.6647 10.5952C12.805 10.781 12.9527 11.0852 13.0156 11.3128C13.0955 11.5914 13.0955 12.0977 13.0156 12.3694C12.8583 12.9058 12.5412 13.3262 12.0789 13.6164C11.6917 13.858 11.3334 13.9578 10.859 13.9578C10.404 13.9555 10.0288 13.851 9.66093 13.6188C8.81137 13.0846 8.45073 12.0768 8.77748 11.1456C8.8864 10.8344 9.02679 10.6207 9.29787 10.3583C9.63673 10.0286 9.97075 9.85207 10.4234 9.75918C10.6412 9.71273 11.0841 9.71273 11.3141 9.75918ZM21.3079 9.75685C22.0389 9.90548 22.6343 10.3653 22.9151 11.0016C23.4524 12.2115 22.7311 13.5909 21.3951 13.9067C21.0974 13.9764 20.6617 13.9764 20.364 13.9067C19.8412 13.7836 19.3668 13.4725 19.0691 13.0591C18.873 12.7851 18.7665 12.5459 18.7012 12.2208C18.66 12.028 18.6673 11.6007 18.7108 11.3964C18.8948 10.5743 19.5604 9.94263 20.4439 9.75453C20.6326 9.71505 21.1095 9.71505 21.3079 9.75685Z" fill="#343533"/>
</svg>
