<svg width="30" height="30" viewBox="0 0 30 30" fill="none" xmlns="http://www.w3.org/2000/svg">
<g clip-path="url(#clip0)">
<path d="M15.0003 28.125C11.4941 28.125 8.19876 26.76 5.72001 24.2803C1.66813 20.2294 0.706259 14.0859 3.32563 8.99531C3.56282 8.535 4.1272 8.35406 4.58845 8.59031C5.04876 8.82656 5.23063 9.39188 4.99345 9.85313C2.74813 14.2172 3.5722 19.4822 7.04563 22.9547C9.17001 25.08 11.9947 26.25 15.0003 26.25C18.005 26.25 20.8306 25.08 22.955 22.9547C25.0794 20.8294 26.2503 18.0047 26.2503 15C26.2503 11.9944 25.0803 9.16969 22.955 7.04531C20.8297 4.92094 18.0059 3.75 15.0003 3.75C11.9947 3.75 9.17001 4.92094 7.04563 7.04531C6.67907 7.41187 6.08657 7.41187 5.72001 7.04531C5.35345 6.67875 5.35345 6.08625 5.72001 5.71969C8.19876 3.24094 11.4941 1.875 15.0003 1.875C18.5066 1.875 21.8028 3.24094 24.2806 5.71969C26.7603 8.19844 28.1253 11.4937 28.1253 15C28.1253 18.5053 26.7603 21.8016 24.2806 24.2803C21.8028 26.76 18.5066 28.125 15.0003 28.125Z" fill="#343533"/>
<path d="M15.0005 20.625C14.483 20.625 14.063 20.2059 14.063 19.6875V10.3125C14.063 9.795 14.483 9.375 15.0005 9.375C15.518 9.375 15.938 9.795 15.938 10.3125V19.6875C15.938 20.2059 15.518 20.625 15.0005 20.625Z" fill="#343533"/>
<path d="M19.688 15.9375H10.313C9.79549 15.9375 9.37549 15.5175 9.37549 15C9.37549 14.4825 9.79549 14.0625 10.313 14.0625H19.688C20.2064 14.0625 20.6255 14.4825 20.6255 15C20.6255 15.5175 20.2064 15.9375 19.688 15.9375Z" fill="#343533"/>
</g>
<defs>
<clipPath id="clip0">
<rect width="30" height="30" fill="white" transform="translate(0.000488281)"/>
</clipPath>
</defs>
</svg>
